<svg version="1.1" id="Capa_1" xmlns="http://www.w3.org/2000/svg" x="0" y="0" viewBox="0 0 451.521 451.521" xml:space="preserve"><path d="M36.068 343.167c-2.88-1.617-5.494-2.472-7.56-2.472-1.498 0-3.331.372-5.567 3.131-1.5 1.851-3.441 7.056-2.84 12.349.323 2.86 1.313 4.956 2.94 6.229 14.976 11.724 79.595 38.331 103.89 41.217 2.813.334 6.055.69 8.945.69 5.644 0 11.814-1.072 20.209-10.48-8.791-.958-19.661-4.1-34.235-9.842-29.095-11.463-57.956-25.197-85.782-40.822zm386.945-2.472c-2.065 0-4.68.855-7.56 2.472-27.826 15.625-56.686 29.359-85.781 40.823-14.574 5.742-25.444 8.885-34.235 9.842 8.395 9.408 14.565 10.48 20.209 10.48 2.892 0 6.134-.357 8.945-.69 24.295-2.886 88.913-29.494 103.89-41.217 1.627-1.273 2.616-3.369 2.939-6.229.601-5.293-1.34-10.498-2.841-12.35-2.235-2.759-4.068-3.131-5.566-3.131z" fill="#7a4d33"/><path d="M185.916 88.61v3.677c0 5.261 15.127 14.922 39.843 14.922 24.718 0 39.846-9.661 39.846-14.922V88.61c-10.432 5.303-24.258 8.445-39.846 8.445-15.587-.001-29.412-3.142-39.843-8.445z" fill="#6eccae"/><path d="M185.916 62.132c0 5.261 15.127 14.922 39.843 14.922 24.718 0 39.846-9.661 39.846-14.922 0-5.261-15.128-14.923-39.846-14.923-24.716 0-39.843 9.662-39.843 14.923z" fill="#b4f0df"/><path d="M444.117 331.233c-5.587-6.894-12.885-10.538-21.104-10.538-5.566 0-11.404 1.693-17.353 5.033-27.035 15.181-55.068 28.522-83.32 39.654-14.976 5.9-25.611 8.768-32.513 8.768-3.668 0-6.106-.738-9.258-2.258l-43.261-74.931L350.856 100.29c2.762-4.783 1.123-10.899-3.66-13.66-4.784-2.762-10.899-1.123-13.66 3.66L225.761 276.963 117.986 90.292c-2.761-4.782-8.877-6.422-13.66-3.66-4.783 2.761-6.422 8.877-3.66 13.66l113.548 196.671-43.261 74.931c-3.152 1.519-5.59 2.258-9.258 2.258-6.902 0-17.537-2.868-32.513-8.768-28.252-11.132-56.285-24.473-83.32-39.654-5.948-3.34-11.786-5.033-17.353-5.033-8.22 0-15.517 3.644-21.105 10.539-5.382 6.642-8.266 17.57-7.175 27.193.937 8.27 4.563 15.091 10.484 19.727 17.771 13.91 85.387 41.947 113.858 45.329 3.381.402 7.321.83 11.305.83 20.083 0 34.356-11.172 50.91-39.844l38.975-67.506 38.975 67.506c16.554 28.672 30.828 39.844 50.91 39.844 3.983 0 7.924-.429 11.305-.83 28.472-3.382 96.088-31.419 113.858-45.329 5.922-4.635 9.548-11.457 10.484-19.727 1.091-9.625-1.793-20.554-7.176-27.196zm-12.697 24.942c-.323 2.86-1.313 4.956-2.939 6.229-14.977 11.724-79.595 38.331-103.89 41.217-2.811.334-6.054.69-8.945.69-5.644 0-11.815-1.072-20.209-10.48 8.791-.958 19.661-4.1 34.235-9.842 29.095-11.463 57.955-25.198 85.781-40.823 2.88-1.617 5.494-2.472 7.56-2.472 1.498 0 3.331.372 5.566 3.13 1.501 1.853 3.442 7.058 2.841 12.351zm-295.544 48.137c-2.891 0-6.133-.357-8.945-.69-24.295-2.886-88.913-29.494-103.89-41.217-1.627-1.273-2.616-3.369-2.94-6.229-.601-5.293 1.34-10.498 2.84-12.349 2.236-2.759 4.069-3.131 5.567-3.131 2.066 0 4.68.855 7.56 2.472 27.826 15.625 56.687 29.359 85.781 40.823 14.574 5.742 25.444 8.885 34.235 9.842-8.394 9.407-14.564 10.479-20.208 10.479z"/><path d="M225.759 127.209c34.117 0 59.846-15.013 59.846-34.922V62.132c0-19.909-25.729-34.923-59.846-34.923-34.116 0-59.843 15.014-59.843 34.923v30.155c0 19.909 25.727 34.922 59.843 34.922zm0-80c24.718 0 39.846 9.662 39.846 14.923 0 5.261-15.128 14.922-39.846 14.922-24.716 0-39.843-9.661-39.843-14.922 0-5.261 15.127-14.923 39.843-14.923zm39.845 45.079c0 5.261-15.128 14.922-39.846 14.922-24.716 0-39.843-9.661-39.843-14.922V88.61c10.431 5.303 24.256 8.444 39.843 8.444 15.588 0 29.414-3.141 39.846-8.445v3.679z"/></svg>