<svg id="Layer_1" data-name="Layer 1" xmlns="http://www.w3.org/2000/svg" viewBox="0 0 105.69 81.91"><defs><style>.cls-2{fill:#00baf0}.cls-3{fill:#1eb359}</style></defs><path d="M0 0h105.69v81.91H0z" fill="#fff"/><path class="cls-2" d="M73.47 50.78h-2.88V25.31a12.84 12.84 0 00-12.83-12.82h-8.19V9.61h8.19a15.73 15.73 0 0115.71 15.7z"/><path class="cls-2" d="M67.72 50.78h-2.88V25.3a7.06 7.06 0 00-7.06-7h-8.21v-2.93h8.21a10 10 0 019.94 9.93z"/><path class="cls-2" d="M62 50.78h-2.9V25.2a1.18 1.18 0 00-1.17-1.2h-8.36v-2.84h8.36a4 4 0 014 4z"/><path class="cls-3" d="M56.21 50.79H48a15.73 15.73 0 01-15.71-15.7v-8.16h2.88v8.16A12.84 12.84 0 0048 47.91h8.21z"/><path class="cls-3" d="M56.21 39.29h-8.37a4 4 0 01-4-4v-8.36h2.87v8.32a1.16 1.16 0 001.17 1.16h8.37z"/><path class="cls-3" d="M38 22.21A9.73 9.73 0 0132.29 24v-2.84C35.46 21.14 38 19.27 38 17v-.55a9.73 9.73 0 01-5.75 1.83v-2.91c3.17 0 5.75-1.89 5.75-4.19v-.52a9.73 9.73 0 01-5.75 1.83V9.61C35.19 9.6 37.58 8 38 6h3c.4 2 2.79 3.58 5.69 3.59v2.88a9.76 9.76 0 01-5.76-1.83v.52c0 2.31 2.58 4.18 5.76 4.19v2.88a9.79 9.79 0 01-5.76-1.83v.6c0 2.3 2.58 4.17 5.76 4.19V24a9.73 9.73 0 01-5.75-1.83v12.98a7.08 7.08 0 007.13 7h8.17V45H48a10 10 0 01-10-9.88z"/><path d="M16.7 64.82h-2l-3-4.8.06 4.8H9.47v-8.54h2l3.06 5-.08-5h2.25zm3.76 0h-2.35v-8.54h2.35zm9.32 0h-2.54l-.41-1.2H24.1l-.44 1.2h-2.52l3.43-8.54h1.82zm-5-3.11h1.42l-.72-2.4zm9.3 3.29a4.43 4.43 0 114.3-5.84v.14h-2.55v-.06a2 2 0 00-1.74-1 2.35 2.35 0 000 4.69 1.83 1.83 0 001.84-1.11h-2.46v-1.95h5.16v.58A4.45 4.45 0 0134.08 65zM47 64.82h-2.55l-.45-1.2h-2.69l-.44 1.2h-2.52l3.43-8.54h1.82zm-5-3.11h1.45l-.72-2.4zm9.72 3.11l-1.78-2.49v2.49h-2.25v-8.54h2.83a5.17 5.17 0 012 .32 2.86 2.86 0 011.59 2.66 2.65 2.65 0 01-2 2.69l1.92 2.41 3.24-8.08h1.82l3.4 8.54H60l-.4-1.2h-2.77l-.44 1.2zm-1.78-4.36h.68c.57 0 1.25-.18 1.25-1.08 0-.63-.46-1-1.23-1h-.7zm7.55 1.25h1.45l-.73-2.4zm10.04 3.11h-2.26v-8.54H70v2.09h-2.5v1.2h2.41v2.08h-2.38zm10.87 0h-2.54l-.41-1.2h-2.73l-.44 1.2h-2.52l3.43-8.54H75zm-5-3.11h1.45l-.72-2.4zM84 64.82h-4.85v-8.54h2.35v6.46H84zm5.61 0h-4.8v-8.54h2.34v6.46h2.46zm3.67.18c-2 0-3.11-1.06-3.11-2.84v-.29h2.33V62c0 .63.3 1 .77 1a.69.69 0 00.69-.69c0-.52-.71-.8-1.39-1.07l-.22-.08c-1.42-.58-2-1.33-2-2.45a2.81 2.81 0 013-2.56 3.16 3.16 0 011.52.36 2.38 2.38 0 011.39 2.33v.11h-2.35v-.09c-.09-.63-.37-.72-.64-.72a.59.59 0 00-.63.54c0 .42.38.62 1.3 1 1.76.75 2.36 1.42 2.36 2.64C96.29 64 95.16 65 93.28 65zM24 76.77c-1.95 0-3.11-1.06-3.11-2.84v-.29h2.31v.11c0 .63.3 1 .77 1a.69.69 0 00.69-.69c0-.53-.71-.8-1.39-1.07l-.22-.09c-1.42-.54-2.05-1.3-2.05-2.42a2.82 2.82 0 013-2.56 3.27 3.27 0 011.52.36 2.38 2.38 0 011.39 2.33v.11h-2.3v-.09c-.09-.63-.37-.72-.64-.72a.6.6 0 00-.63.55c0 .41.38.61 1.3 1 1.76.76 2.36 1.42 2.36 2.64 0 1.68-1.14 2.67-3 2.67zm7.52-.16h-2.35v-6.45h-1.64v-2.08h5.62v2.08h-1.63zm9.48 0h-2.56l-.4-1.2H35.3l-.43 1.2h-2.52l3.42-8.53h1.83zm-5-3.1h1.45l-.73-2.41zm8.15 3.1h-2.34v-6.45h-1.65v-2.08h5.62v2.08h-1.63zm7.32 0h-4.84v-8.53h4.84v2.08h-2.59v1.08h2.51v2.08h-2.51v1.21h2.59zm5.89 0H55.1v-8.53H58a4.82 4.82 0 012 .32 2.79 2.79 0 011.59 2.6c0 1.91-1.22 3-3.35 3h-.88zm0-4.69h.8c.82 0 1.17-.27 1.17-.89 0-.43-.15-.87-1.25-.87h-.72zm11.96 4.69h-2.54l-.4-1.2h-2.74l-.44 1.2h-2.52l3.43-8.53h1.82zm-5-3.1h1.44L65 71.1zm12.42 3.1H74l-1.78-2.48v2.48H70v-8.53h2.83a5.2 5.2 0 012 .31 2.87 2.87 0 011.59 2.66 2.65 2.65 0 01-2 2.69zm-4.49-4.35h.68c.57 0 1.25-.19 1.25-1.08 0-.64-.46-1-1.23-1h-.7zm12.42 4.35h-2.75l-2.13-3.36v3.36h-2.34v-8.53h2.34v3.5l2.2-3.5h2.5l-2.83 4.25z" fill="#1c2b39"/></svg>