<svg width="388" height="299" xmlns="http://www.w3.org/2000/svg"><g id="Page-1" stroke="none" stroke-width="1" fill="none" fill-rule="evenodd"><g id="Artboard" transform="translate(-5 -8)"><path d="M296.24 302.556l2.132 1.955 89.385-1.716c2.083-.04 3.775-1.704 3.743-3.757l-.308-19.706c-.032-2.057-1.782-3.661-3.869-3.621l-73.728 1.416L118.487 15.623c-4.789-6.419-13.874-7.74-20.293-2.951l-.11.083-.746.568c-6.33 4.817-7.597 13.834-2.84 20.209L293.144 299.78a10.479 10.479 0 003.096 2.776z" id="Rectangle-2" stroke="#030303" stroke-width="3" fill="#FFF"/><path d="M101.76 302.556l-2.132 1.955-89.385-1.716c-2.083-.04-3.775-1.704-3.743-3.757l.308-19.706c.032-2.057 1.782-3.661 3.869-3.621l73.728 1.416L279.513 15.623c4.789-6.419 13.874-7.74 20.293-2.951l.11.083.746.568c6.33 4.817 7.597 13.834 2.84 20.209L104.856 299.78a10.479 10.479 0 01-3.096 2.776z" id="Rectangle-2" stroke="#030303" stroke-width="3" fill="#FFF"/><g id="Puck" transform="translate(169 265)" stroke="#000" stroke-width="3"><ellipse id="Oval" fill="#FFFDFD" cx="30.5" cy="26" rx="29.5" ry="12"/><ellipse id="Oval" fill="#FFF" cx="30.5" cy="9.5" rx="29.5" ry="9.5"/><path d="M60 10v16.685" id="Line-3" stroke-linecap="square"/><path d="M1 10v16.685" id="Line-2" stroke-linecap="square"/></g><text id="HYDE" stroke="#000" stroke-width="2" fill="#FFF" font-family="FiraCode-Bold, Fira Code" font-size="50" font-weight="bold"><tspan x="19" y="172">HYDE</tspan></text><text id="PARK" stroke="#000" stroke-width="2" fill="#FFFCFC" font-family="FiraCode-Bold, Fira Code" font-size="50" font-weight="bold"><tspan x="254" y="172">PARK</tspan></text></g></g></svg>