<!--
<svg height="100%" width="100%" viewBox="0 0 388 299" version="1.1" xmlns="http://www.w3.org/2000/svg" xmlns:xlink="http://www.w3.org/1999/xlink">
    <g id="Page-1" stroke="none" stroke-width="1" fill="none" fill-rule="evenodd">
        <g id="Artboard" transform="translate(-5.000000, -8.000000)" stroke-width="3">
            <path d="M181.760305,302.556246 L179.627522,304.511247 L90.2433597,302.794533 C88.1604175,302.754528 86.46839,301.090907 86.5004412,299.037634 L86.8080368,279.332375 C86.8401565,277.274715 88.5899286,275.670799 90.6769172,275.710881 L164.405468,277.126913 L359.513135,15.6225756 C364.301966,9.2040686 373.387308,7.88295471 379.805815,12.6717851 C379.861297,12.7133182 379.861297,12.7133182 379.916514,12.755204 L380.662168,13.3227109 C386.991572,18.1399276 388.258752,27.1568077 383.50226,33.5319714 L184.8556,299.779649 C184.008238,300.915374 182.957325,301.853138 181.760305,302.556246 Z" id="Rectangle-2" stroke="#030303" fill="#FFFFFF" transform="translate(239.000000, 154.500000) scale(-1, 1) translate(-239.000000, -154.500000) "></path>
            <path d="M101.760305,302.556246 L99.6275218,304.511247 L10.2433597,302.794533 C8.16041754,302.754528 6.46839001,301.090907 6.50044123,299.037634 L6.80803677,279.332375 C6.84015648,277.274715 8.58992859,275.670799 10.6769172,275.710881 L84.4054683,277.126913 L279.513135,15.6225756 C284.301966,9.2040686 293.387308,7.88295471 299.805815,12.6717851 C299.861297,12.7133182 299.861297,12.7133182 299.916514,12.755204 L300.662168,13.3227109 C306.991572,18.1399276 308.258752,27.1568077 303.50226,33.5319714 L104.8556,299.779649 C104.008238,300.915374 102.957325,301.853138 101.760305,302.556246 Z" id="Rectangle-2" stroke="#030303" fill="#FFFFFF"></path>
            <g id="Puck" transform="translate(169.000000, 265.000000)" stroke="#000000">
                <ellipse id="Oval" fill="#FFFDFD" cx="30.5" cy="26" rx="29.5" ry="12"></ellipse>
                <ellipse id="Oval" fill="#FFFFFF" cx="30.5" cy="9.5" rx="29.5" ry="9.5"></ellipse>
                <path d="M60,10 L60,26.6851852" id="Line-3" stroke-linecap="square"></path>
                <path d="M1,10 L1,26.6851852" id="Line-2" stroke-linecap="square"></path>
            </g>
        </g>
    </g>
</svg> -->

<svg width="388px" height="299px" viewBox="0 0 388 299" version="1.1" xmlns="http://www.w3.org/2000/svg" xmlns:xlink="http://www.w3.org/1999/xlink">
    <g id="Page-1" stroke="none" stroke-width="1" fill="none" fill-rule="evenodd">
        <g id="Artboard" transform="translate(-5.000000, -8.000000)">
            <path d="M181.760305,302.556246 L179.627522,304.511247 L90.2433597,302.794533 C88.1604175,302.754528 86.46839,301.090907 86.5004412,299.037634 L86.8080368,279.332375 C86.8401565,277.274715 88.5899286,275.670799 90.6769172,275.710881 L164.405468,277.126913 L359.513135,15.6225756 C364.301966,9.2040686 373.387308,7.88295471 379.805815,12.6717851 C379.861297,12.7133182 379.861297,12.7133182 379.916514,12.755204 L380.662168,13.3227109 C386.991572,18.1399276 388.258752,27.1568077 383.50226,33.5319714 L184.8556,299.779649 C184.008238,300.915374 182.957325,301.853138 181.760305,302.556246 Z" id="Rectangle-2" stroke="#030303" stroke-width="3" fill="#FFFFFF" transform="translate(239.000000, 154.500000) scale(-1, 1) translate(-239.000000, -154.500000) "></path>
            <path d="M101.760305,302.556246 L99.6275218,304.511247 L10.2433597,302.794533 C8.16041754,302.754528 6.46839001,301.090907 6.50044123,299.037634 L6.80803677,279.332375 C6.84015648,277.274715 8.58992859,275.670799 10.6769172,275.710881 L84.4054683,277.126913 L279.513135,15.6225756 C284.301966,9.2040686 293.387308,7.88295471 299.805815,12.6717851 C299.861297,12.7133182 299.861297,12.7133182 299.916514,12.755204 L300.662168,13.3227109 C306.991572,18.1399276 308.258752,27.1568077 303.50226,33.5319714 L104.8556,299.779649 C104.008238,300.915374 102.957325,301.853138 101.760305,302.556246 Z" id="Rectangle-2" stroke="#030303" stroke-width="3" fill="#FFFFFF"></path>
            <g id="Puck" transform="translate(169.000000, 265.000000)" stroke="#000000" stroke-width="3">
                <ellipse id="Oval" fill="#FFFDFD" cx="30.5" cy="26" rx="29.5" ry="12"></ellipse>
                <ellipse id="Oval" fill="#FFFFFF" cx="30.5" cy="9.5" rx="29.5" ry="9.5"></ellipse>
                <path d="M60,10 L60,26.6851852" id="Line-3" stroke-linecap="square"></path>
                <path d="M1,10 L1,26.6851852" id="Line-2" stroke-linecap="square"></path>
            </g>
            <text id="HYDE" stroke="#000000" stroke-width="2" fill="#FFFFFF" font-family="FiraCode-Bold, Fira Code" font-size="50" font-weight="bold">
                <tspan x="19" y="172">HYDE</tspan>
            </text>
            <text id="PARK" stroke="#000000" stroke-width="2" fill="#FFFCFC" font-family="FiraCode-Bold, Fira Code" font-size="50" font-weight="bold">
                <tspan x="254" y="172">PARK</tspan>
            </text>
        </g>
    </g>
</svg>
